<svg id="Lager_1" data-name="Lager 1" xmlns="http://www.w3.org/2000/svg" viewBox="0 0 135.15 29.54"><path d="M4.68,4.58h5.81V32.33H4.68ZM7.61,19h6.81a5.47,5.47,0,0,0,3.88-1.28,4.69,4.69,0,0,0,1.39-3.62v0a4.68,4.68,0,0,0-1.39-3.64A5.56,5.56,0,0,0,14.42,9.2H7.61V4.58h8.23A10.56,10.56,0,0,1,21,5.76a8.54,8.54,0,0,1,3.42,3.32,9.93,9.93,0,0,1,1.22,5v0a9.88,9.88,0,0,1-1.22,5A8.54,8.54,0,0,1,21,22.42a10.56,10.56,0,0,1-5.11,1.18H7.61Z" transform="translate(-4.68 -3.21)"/><path d="M34.13,11.72h5.52v3.51h.11a5.32,5.32,0,0,1,1.71-2.9,4.68,4.68,0,0,1,3.08-1,6.19,6.19,0,0,1,.88.06,5.33,5.33,0,0,1,.74.15v5a3.17,3.17,0,0,0-.89-.24,7,7,0,0,0-1.15-.09,4.75,4.75,0,0,0-2.37.55,3.7,3.7,0,0,0-1.5,1.56,5.34,5.34,0,0,0-.52,2.47V32.33H34.13Z" transform="translate(-4.68 -3.21)"/><path d="M57.41,31.48a8.81,8.81,0,0,1-3.55-3.7A12.25,12.25,0,0,1,52.6,22v0a12.06,12.06,0,0,1,1.28-5.73,9.11,9.11,0,0,1,3.57-3.68,10.78,10.78,0,0,1,5.37-1.29,10.93,10.93,0,0,1,5.39,1.28,8.9,8.9,0,0,1,3.57,3.67A12.09,12.09,0,0,1,73.05,22v0a12.26,12.26,0,0,1-1.26,5.77,8.72,8.72,0,0,1-3.55,3.69,12.09,12.09,0,0,1-10.83,0Zm7.81-3.87a4.71,4.71,0,0,0,1.55-2.15A9.44,9.44,0,0,0,67.32,22v0a9.31,9.31,0,0,0-.56-3.4,4.67,4.67,0,0,0-1.57-2.15,4.13,4.13,0,0,0-4.73,0,4.92,4.92,0,0,0-1.57,2.15A9.26,9.26,0,0,0,58.34,22v0a9.67,9.67,0,0,0,.54,3.44,4.67,4.67,0,0,0,1.57,2.15,3.94,3.94,0,0,0,2.41.74A3.82,3.82,0,0,0,65.22,27.61Z" transform="translate(-4.68 -3.21)"/><path d="M84.32,9.37h-8V4.58H98.16V9.37h-8v23h-5.8Z" transform="translate(-4.68 -3.21)"/><path d="M106.4,8.21a2.86,2.86,0,0,1-.87-2.07,2.8,2.8,0,0,1,.87-2.07,3,3,0,0,1,2.15-.86,2.93,2.93,0,0,1,2.13.86,2.8,2.8,0,0,1,.87,2.07,2.86,2.86,0,0,1-.87,2.07,2.9,2.9,0,0,1-2.13.87A2.93,2.93,0,0,1,106.4,8.21Zm-.68,3.51h5.63V32.33h-5.63Z" transform="translate(-4.68 -3.21)"/><path d="M120.7,11.72h5.61V15.1h.12a6.42,6.42,0,0,1,2.38-2.79,7.07,7.07,0,0,1,3.91-1A6.76,6.76,0,0,1,138,13.34,8.19,8.19,0,0,1,139.83,19V32.33h-5.61V20.2a4.73,4.73,0,0,0-.95-3.14A3.54,3.54,0,0,0,130.43,16a4,4,0,0,0-2.17.57,3.92,3.92,0,0,0-1.44,1.6,5.23,5.23,0,0,0-.51,2.37V32.33H120.7Z" transform="translate(-4.68 -3.21)"/></svg>